<?xml version="1.0" encoding="UTF-8" standalone="no"?><!DOCTYPE svg PUBLIC "-//W3C//DTD SVG 1.1//EN" "http://www.w3.org/Graphics/SVG/1.1/DTD/svg11.dtd"><svg width="100%" height="100%" viewBox="0 0 1280 640" version="1.1" xmlns="http://www.w3.org/2000/svg" xmlns:xlink="http://www.w3.org/1999/xlink" xml:space="preserve" xmlns:serif="http://www.serif.com/" style="fill-rule:evenodd;clip-rule:evenodd;stroke-linejoin:round;stroke-miterlimit:2;"><rect x="0" y="0" width="1280" height="640" style="fill:#0b486e;"/><g><path d="M605.111,393.312l-47.502,-48.201l47.502,-42.437l0,28.227l49.864,-48.552l69.022,0l-71.384,62.199l71.384,72.434l-66.66,0l-52.226,-54.851l0,31.181Z" style="fill:#fff;fill-rule:nonzero;"/><path d="M180.069,444.825c4.899,-2.624 8.792,-5.161 11.679,-7.611c2.887,-2.449 5.074,-4.768 6.561,-6.955c1.487,-2.187 2.45,-4.242 2.887,-6.167c0.437,-1.925 0.656,-3.762 0.656,-5.511c0,-3.15 -1.312,-4.724 -3.937,-4.724c-12.247,0 -18.371,-5.774 -18.371,-17.321c0,-6.474 1.838,-11.417 5.512,-14.828c3.674,-3.412 8.748,-5.118 15.221,-5.118c7.874,0 13.91,2.275 18.109,6.824c4.199,4.549 6.299,11.285 6.299,20.208c0,12.072 -3.281,22.045 -9.842,29.918c-6.561,7.873 -16.14,14.872 -28.737,20.995l-6.037,-9.71Z" style="fill:#fff;fill-rule:nonzero;"/><path d="M1055.84,444.825c4.899,-2.624 8.792,-5.161 11.679,-7.611c2.887,-2.449 5.074,-4.768 6.561,-6.955c1.487,-2.187 2.45,-4.242 2.887,-6.167c0.437,-1.925 0.656,-3.762 0.656,-5.511c0,-3.15 -1.312,-4.724 -3.937,-4.724c-12.247,0 -18.371,-5.774 -18.371,-17.321c0,-6.474 1.838,-11.417 5.512,-14.828c3.674,-3.412 8.748,-5.118 15.221,-5.118c7.874,0 13.91,2.275 18.109,6.824c4.199,4.549 6.299,11.285 6.299,20.208c0,12.072 -3.281,22.045 -9.842,29.918c-6.561,7.873 -16.14,14.872 -28.737,20.995l-6.037,-9.71Z" style="fill:#fff;fill-rule:nonzero;"/><path d="M272.79,346.248c0,4.374 0.787,8.442 2.362,12.204c1.575,3.762 3.718,7.042 6.43,9.841c2.712,2.8 5.948,4.987 9.71,6.561c3.762,1.575 7.83,2.362 12.204,2.362c4.199,0 8.179,-0.787 11.941,-2.362c3.761,-1.574 6.998,-3.761 9.71,-6.561c2.712,-2.799 4.899,-6.036 6.561,-9.71c1.662,-3.674 2.493,-7.611 2.493,-11.81c0,-4.199 -0.831,-8.179 -2.493,-11.941c-1.662,-3.762 -3.849,-7.042 -6.561,-9.842c-2.712,-2.799 -5.949,-4.986 -9.71,-6.561c-3.762,-1.574 -7.742,-2.362 -11.941,-2.362c-4.199,0 -8.18,0.788 -11.941,2.362c-3.762,1.575 -6.999,3.762 -9.711,6.561c-2.712,2.8 -4.899,5.993 -6.561,9.58c-1.662,3.586 -2.493,7.479 -2.493,11.678Zm59.837,-150.117l47.764,0l0,217.827l-47.764,0l0,-14.959c-10.148,12.772 -23.882,19.158 -41.204,19.158c-9.798,0 -18.808,-1.837 -27.031,-5.511c-8.223,-3.674 -15.397,-8.748 -21.52,-15.221c-6.124,-6.474 -10.892,-14.085 -14.304,-22.833c-3.411,-8.748 -5.117,-18.196 -5.117,-28.344c0,-9.623 1.618,-18.764 4.855,-27.425c3.237,-8.661 7.829,-16.228 13.778,-22.701c5.949,-6.474 13.079,-11.591 21.389,-15.353c8.311,-3.762 17.453,-5.643 27.425,-5.643c16.797,0 30.706,5.862 41.729,17.584l0,-96.579Z" style="fill:#fff;fill-rule:nonzero;"/><path d="M496.653,327.09c-1.574,-6.649 -4.811,-11.985 -9.71,-16.009c-4.899,-4.024 -10.848,-6.036 -17.846,-6.036c-7.349,0 -13.341,1.924 -17.978,5.774c-4.636,3.849 -7.567,9.273 -8.791,16.271l54.325,0Zm-55.638,27.556c0,20.471 9.623,30.706 28.869,30.706c10.323,0 18.109,-4.199 23.357,-12.597l45.928,0c-9.273,30.793 -32.456,46.19 -69.547,46.19c-11.373,0 -21.783,-1.706 -31.231,-5.118c-9.448,-3.412 -17.54,-8.267 -24.276,-14.565c-6.736,-6.299 -11.941,-13.822 -15.615,-22.57c-3.674,-8.748 -5.512,-18.546 -5.512,-29.394c0,-11.197 1.75,-21.302 5.249,-30.312c3.5,-9.011 8.486,-16.665 14.96,-22.964c6.473,-6.298 14.303,-11.154 23.488,-14.565c9.186,-3.412 19.552,-5.118 31.1,-5.118c11.372,0 21.607,1.706 30.705,5.118c9.098,3.411 16.797,8.354 23.095,14.828c6.299,6.473 11.11,14.39 14.435,23.751c3.324,9.36 4.986,19.902 4.986,31.624l0,4.986l-99.991,0Z" style="fill:#fff;fill-rule:nonzero;"/><path d="M862.77,346.248c0,4.374 0.787,8.442 2.362,12.204c1.574,3.762 3.718,7.042 6.429,9.841c2.712,2.8 5.949,4.987 9.711,6.561c3.762,1.575 7.829,2.362 12.203,2.362c4.199,0 8.18,-0.787 11.942,-2.362c3.761,-1.574 6.998,-3.761 9.71,-6.561c2.712,-2.799 4.899,-6.036 6.561,-9.71c1.662,-3.674 2.493,-7.611 2.493,-11.81c0,-4.199 -0.831,-8.179 -2.493,-11.941c-1.662,-3.762 -3.849,-7.042 -6.561,-9.842c-2.712,-2.799 -5.949,-4.986 -9.71,-6.561c-3.762,-1.574 -7.743,-2.362 -11.942,-2.362c-4.374,0 -8.441,0.788 -12.203,2.362c-3.762,1.575 -6.999,3.762 -9.711,6.561c-2.711,2.8 -4.855,5.993 -6.429,9.58c-1.575,3.586 -2.362,7.479 -2.362,11.678Zm59.837,-66.922l47.764,0l0,134.632l-47.764,0l0,-14.959c-10.148,12.772 -23.883,19.158 -41.204,19.158c-9.798,0 -18.808,-1.793 -27.031,-5.38c-8.224,-3.586 -15.397,-8.616 -21.521,-15.09c-6.123,-6.474 -10.891,-14.084 -14.303,-22.833c-3.412,-8.748 -5.117,-18.283 -5.117,-28.606c0,-9.623 1.662,-18.764 4.986,-27.425c3.324,-8.661 7.961,-16.228 13.909,-22.701c5.949,-6.474 13.035,-11.591 21.258,-15.353c8.223,-3.762 17.321,-5.643 27.294,-5.643c16.796,0 30.706,5.862 41.729,17.584l0,-13.384Z" style="fill:#fff;fill-rule:nonzero;"/><path d="M1040.97,279.326l0,134.632l-47.502,0l0,-134.632l47.502,0Zm-50.651,-51.702c0,-3.674 0.699,-7.129 2.099,-10.366c1.4,-3.237 3.324,-6.08 5.774,-8.529c2.449,-2.45 5.292,-4.374 8.529,-5.774c3.237,-1.4 6.693,-2.1 10.367,-2.1c3.674,0 7.129,0.7 10.366,2.1c3.237,1.4 6.08,3.324 8.53,5.774c2.449,2.449 4.374,5.292 5.773,8.529c1.4,3.237 2.1,6.692 2.1,10.366c0,3.675 -0.7,7.13 -2.1,10.367c-1.399,3.237 -3.324,6.08 -5.773,8.529c-2.45,2.45 -5.293,4.374 -8.53,5.774c-3.237,1.4 -6.692,2.099 -10.366,2.099c-3.674,0 -7.13,-0.699 -10.367,-2.099c-3.237,-1.4 -6.08,-3.324 -8.529,-5.774c-2.45,-2.449 -4.374,-5.292 -5.774,-8.529c-1.4,-3.237 -2.099,-6.692 -2.099,-10.367Z" style="fill:#fff;fill-rule:nonzero;"/><path d="M557.609,416.982l0,-58.778l47.502,48.2l0,10.578l-47.502,0Zm0,-84.975l0,-135.876l47.502,0l0,93.439l-47.502,42.437Z" style="fill:#5ea5cf;fill-rule:nonzero;"/><path d="M713.508,393.312l-47.502,-48.201l47.502,-42.437l0,28.227l49.864,-48.552l69.022,0l-71.384,62.199l71.384,72.434l-66.66,0l-52.226,-54.851l0,31.181Z" style="fill:#5ea5cf;fill-rule:nonzero;"/><g><path d="M797.635,229.297l3.986,-2.066c1.968,3.477 3.428,6.151 4.379,8.021l-3.986,1.919c-1.509,-2.854 -2.969,-5.479 -4.379,-7.874Zm7.283,-1.771l4.084,-2.116c1.673,2.953 3.166,5.675 4.478,8.169l-4.085,1.968c-1.377,-2.625 -2.87,-5.298 -4.477,-8.021Zm-25.49,11.072c0,-3.609 1.058,-6.857 3.174,-9.743c2.116,-2.887 5.208,-5.266 9.275,-7.136l0,-0.098c-7.545,0.328 -15.074,0.492 -22.586,0.492l0,-4.675c13.122,0 26.49,-0.328 40.104,-0.984l0.247,4.675c-8.235,0.82 -14.41,2.739 -18.527,5.757c-4.117,3.018 -6.176,6.758 -6.176,11.22c0,3.739 1.189,6.659 3.568,8.759c2.378,2.099 5.536,3.149 9.472,3.149c1.837,0 3.871,-0.18 6.102,-0.541l0.591,4.724c-2.461,0.426 -4.774,0.639 -6.939,0.639c-5.61,0 -10.063,-1.451 -13.36,-4.355c-3.297,-2.903 -4.945,-6.864 -4.945,-11.883Z" style="fill:#fff;fill-rule:nonzero;"/><path d="M823.026,227.821c7.939,-1.935 13.926,-2.903 17.961,-2.903c10.038,0 15.058,4.183 15.058,12.548c0,10.432 -8.546,15.648 -25.638,15.648l-0.344,-4.675c7.25,0 12.515,-0.869 15.796,-2.608c3.28,-1.738 4.92,-4.363 4.92,-7.873c0,-2.854 -0.82,-4.945 -2.46,-6.274c-1.64,-1.329 -4.248,-1.993 -7.824,-1.993c-3.412,0 -8.874,0.919 -16.386,2.756l-1.083,-4.626Z" style="fill:#fff;fill-rule:nonzero;"/><path d="M879.566,211.829l4.773,0.541c-0.492,3.182 -1.082,6.381 -1.771,9.595l7.356,0c0.804,0 1.69,0.091 2.657,0.271c0.968,0.181 1.641,0.345 2.018,0.492c0.377,0.148 0.804,0.509 1.279,1.083c0.476,0.574 0.771,1.091 0.886,1.55c0.115,0.459 0.246,1.279 0.394,2.46c0.147,1.181 0.221,2.264 0.221,3.248l0,4.429c0,6.2 -0.746,10.825 -2.239,13.876c-1.492,3.051 -3.452,4.577 -5.88,4.577c-2.887,0 -6.282,-0.837 -10.186,-2.51l1.575,-4.478c3.444,1.378 5.987,2.067 7.627,2.067c0.459,0 0.918,-0.279 1.378,-0.837c0.459,-0.557 0.885,-1.394 1.279,-2.509c0.394,-1.116 0.705,-2.617 0.935,-4.503c0.23,-1.886 0.344,-4.027 0.344,-6.421l0,-2.805c0,-0.558 -0.032,-1.231 -0.098,-2.018c-0.066,-0.787 -0.115,-1.296 -0.148,-1.525c-0.032,-0.23 -0.164,-0.542 -0.393,-0.935c-0.23,-0.394 -0.41,-0.615 -0.542,-0.665c-0.131,-0.049 -0.434,-0.131 -0.91,-0.246c-0.476,-0.114 -0.877,-0.172 -1.206,-0.172l-1.623,0l-5.758,0c-2.329,9.547 -5.429,18.847 -9.3,27.901l-4.527,-1.722c3.641,-8.562 6.561,-17.289 8.759,-26.179l-8.119,0l0,-4.429l9.201,0c0.853,-3.805 1.526,-7.184 2.018,-10.136Zm19.289,7.676l4.626,-1.575c3.379,8.005 6.184,16.305 8.415,24.9l-4.774,1.131c-2.23,-8.627 -4.986,-16.779 -8.267,-24.456Z" style="fill:#fff;fill-rule:nonzero;"/><path d="M946.882,218.915l4.724,-1.477c2.198,4.265 3.88,9.112 5.044,14.541c1.165,5.43 1.747,11.031 1.747,16.805l-5.167,0c0,-5.347 -0.557,-10.629 -1.673,-15.845c-1.115,-5.216 -2.673,-9.891 -4.675,-14.024Zm-20.716,-0.591c-1.476,5.183 -2.214,10.662 -2.214,16.436c0,3.936 0.672,7.258 2.017,9.964c1.345,2.707 2.69,4.06 4.035,4.06c0.919,0 2.116,-1.001 3.592,-3.002c1.477,-2.001 2.936,-4.855 4.38,-8.562l4.675,1.821c-1.641,4.658 -3.683,8.308 -6.127,10.948c-2.444,2.641 -4.748,3.962 -6.914,3.962c-2.69,0 -5.166,-1.87 -7.43,-5.61c-2.264,-3.74 -3.395,-8.267 -3.395,-13.581c0,-6.135 0.787,-11.81 2.362,-17.026l5.019,0.59Z" style="fill:#fff;fill-rule:nonzero;"/></g></g></svg>