<?xml version="1.0" encoding="UTF-8" standalone="no"?><!DOCTYPE svg PUBLIC "-//W3C//DTD SVG 1.1//EN" "http://www.w3.org/Graphics/SVG/1.1/DTD/svg11.dtd"><svg width="100%" height="100%" viewBox="0 0 1280 640" version="1.1" xmlns="http://www.w3.org/2000/svg" xmlns:xlink="http://www.w3.org/1999/xlink" xml:space="preserve" xmlns:serif="http://www.serif.com/" style="fill-rule:evenodd;clip-rule:evenodd;stroke-linejoin:round;stroke-miterlimit:2;"><rect x="0" y="0" width="1280" height="640" style="fill:#fff;"/><g><path d="M605.111,347.445l-47.502,-48.201l47.502,-42.437l0,28.227l49.864,-48.552l69.022,0l-71.384,62.199l71.384,72.434l-66.66,0l-52.226,-54.85l0,31.18Z" style="fill:#0b486e;fill-rule:nonzero;"/><path d="M180.069,398.958c4.899,-2.624 8.792,-5.161 11.679,-7.611c2.887,-2.449 5.074,-4.767 6.561,-6.954c1.487,-2.187 2.45,-4.243 2.887,-6.168c0.437,-1.924 0.656,-3.761 0.656,-5.511c0,-3.149 -1.312,-4.724 -3.937,-4.724c-12.247,0 -18.371,-5.774 -18.371,-17.321c0,-6.474 1.838,-11.416 5.512,-14.828c3.674,-3.412 8.748,-5.118 15.221,-5.118c7.874,0 13.91,2.275 18.109,6.824c4.199,4.549 6.299,11.285 6.299,20.208c0,12.072 -3.281,22.045 -9.842,29.918c-6.561,7.874 -16.14,14.872 -28.737,20.996l-6.037,-9.711Z" style="fill:#0b486e;fill-rule:nonzero;"/><path d="M1055.84,398.958c4.899,-2.624 8.792,-5.161 11.679,-7.611c2.887,-2.449 5.074,-4.767 6.561,-6.954c1.487,-2.187 2.45,-4.243 2.887,-6.168c0.437,-1.924 0.656,-3.761 0.656,-5.511c0,-3.149 -1.312,-4.724 -3.937,-4.724c-12.247,0 -18.371,-5.774 -18.371,-17.321c0,-6.474 1.838,-11.416 5.512,-14.828c3.674,-3.412 8.748,-5.118 15.221,-5.118c7.874,0 13.91,2.275 18.109,6.824c4.199,4.549 6.299,11.285 6.299,20.208c0,12.072 -3.281,22.045 -9.842,29.918c-6.561,7.874 -16.14,14.872 -28.737,20.996l-6.037,-9.711Z" style="fill:#0b486e;fill-rule:nonzero;"/><path d="M272.79,300.382c0,4.374 0.787,8.442 2.362,12.203c1.575,3.762 3.718,7.042 6.43,9.842c2.712,2.799 5.948,4.986 9.71,6.561c3.762,1.574 7.83,2.362 12.204,2.362c4.199,0 8.179,-0.788 11.941,-2.362c3.761,-1.575 6.998,-3.762 9.71,-6.561c2.712,-2.8 4.899,-6.036 6.561,-9.711c1.662,-3.674 2.493,-7.61 2.493,-11.809c0,-4.2 -0.831,-8.18 -2.493,-11.942c-1.662,-3.761 -3.849,-7.042 -6.561,-9.841c-2.712,-2.8 -5.949,-4.987 -9.71,-6.561c-3.762,-1.575 -7.742,-2.362 -11.941,-2.362c-4.199,0 -8.18,0.787 -11.941,2.362c-3.762,1.574 -6.999,3.761 -9.711,6.561c-2.712,2.799 -4.899,5.992 -6.561,9.579c-1.662,3.587 -2.493,7.48 -2.493,11.679Zm59.837,-150.117l47.764,0l0,217.827l-47.764,0l0,-14.959c-10.148,12.772 -23.882,19.158 -41.204,19.158c-9.798,0 -18.808,-1.837 -27.031,-5.511c-8.223,-3.675 -15.397,-8.749 -21.52,-15.222c-6.124,-6.474 -10.892,-14.085 -14.304,-22.833c-3.411,-8.748 -5.117,-18.196 -5.117,-28.343c0,-9.623 1.618,-18.765 4.855,-27.426c3.237,-8.66 7.829,-16.227 13.778,-22.701c5.949,-6.473 13.079,-11.591 21.389,-15.353c8.311,-3.761 17.453,-5.642 27.425,-5.642c16.797,0 30.706,5.861 41.729,17.583l0,-96.578Z" style="fill:#0b486e;fill-rule:nonzero;"/><path d="M496.653,281.223c-1.574,-6.648 -4.811,-11.985 -9.71,-16.009c-4.899,-4.024 -10.848,-6.036 -17.846,-6.036c-7.349,0 -13.341,1.925 -17.978,5.774c-4.636,3.849 -7.567,9.273 -8.791,16.271l54.325,0Zm-55.638,27.557c0,20.47 9.623,30.706 28.869,30.706c10.323,0 18.109,-4.2 23.357,-12.598l45.928,0c-9.273,30.794 -32.456,46.19 -69.547,46.19c-11.373,0 -21.783,-1.706 -31.231,-5.118c-9.448,-3.411 -17.54,-8.266 -24.276,-14.565c-6.736,-6.299 -11.941,-13.822 -15.615,-22.57c-3.674,-8.748 -5.512,-18.546 -5.512,-29.394c0,-11.197 1.75,-21.301 5.249,-30.312c3.5,-9.01 8.486,-16.665 14.96,-22.963c6.473,-6.299 14.303,-11.154 23.488,-14.566c9.186,-3.412 19.552,-5.118 31.1,-5.118c11.372,0 21.607,1.706 30.705,5.118c9.098,3.412 16.797,8.354 23.095,14.828c6.299,6.474 11.11,14.391 14.435,23.751c3.324,9.361 4.986,19.902 4.986,31.624l0,4.987l-99.991,0Z" style="fill:#0b486e;fill-rule:nonzero;"/><path d="M862.77,300.382c0,4.374 0.787,8.442 2.362,12.203c1.574,3.762 3.718,7.042 6.429,9.842c2.712,2.799 5.949,4.986 9.711,6.561c3.762,1.574 7.829,2.362 12.203,2.362c4.199,0 8.18,-0.788 11.942,-2.362c3.761,-1.575 6.998,-3.762 9.71,-6.561c2.712,-2.8 4.899,-6.036 6.561,-9.711c1.662,-3.674 2.493,-7.61 2.493,-11.809c0,-4.2 -0.831,-8.18 -2.493,-11.942c-1.662,-3.761 -3.849,-7.042 -6.561,-9.841c-2.712,-2.8 -5.949,-4.987 -9.71,-6.561c-3.762,-1.575 -7.743,-2.362 -11.942,-2.362c-4.374,0 -8.441,0.787 -12.203,2.362c-3.762,1.574 -6.999,3.761 -9.711,6.561c-2.711,2.799 -4.855,5.992 -6.429,9.579c-1.575,3.587 -2.362,7.48 -2.362,11.679Zm59.837,-66.923l47.764,0l0,134.633l-47.764,0l0,-14.959c-10.148,12.772 -23.883,19.158 -41.204,19.158c-9.798,0 -18.808,-1.794 -27.031,-5.38c-8.224,-3.587 -15.397,-8.617 -21.521,-15.091c-6.123,-6.473 -10.891,-14.084 -14.303,-22.832c-3.412,-8.748 -5.117,-18.284 -5.117,-28.606c0,-9.623 1.662,-18.765 4.986,-27.426c3.324,-8.66 7.961,-16.227 13.909,-22.701c5.949,-6.473 13.035,-11.591 21.258,-15.353c8.223,-3.761 17.321,-5.642 27.294,-5.642c16.796,0 30.706,5.861 41.729,17.583l0,-13.384Z" style="fill:#0b486e;fill-rule:nonzero;"/><path d="M1040.97,233.459l0,134.633l-47.502,0l0,-134.633l47.502,0Zm-50.651,-51.701c0,-3.674 0.699,-7.13 2.099,-10.367c1.4,-3.237 3.324,-6.08 5.774,-8.529c2.449,-2.45 5.292,-4.374 8.529,-5.774c3.237,-1.4 6.693,-2.099 10.367,-2.099c3.674,0 7.129,0.699 10.366,2.099c3.237,1.4 6.08,3.324 8.53,5.774c2.449,2.449 4.374,5.292 5.773,8.529c1.4,3.237 2.1,6.693 2.1,10.367c0,3.674 -0.7,7.129 -2.1,10.366c-1.399,3.237 -3.324,6.08 -5.773,8.53c-2.45,2.449 -5.293,4.374 -8.53,5.773c-3.237,1.4 -6.692,2.1 -10.366,2.1c-3.674,0 -7.13,-0.7 -10.367,-2.1c-3.237,-1.399 -6.08,-3.324 -8.529,-5.773c-2.45,-2.45 -4.374,-5.293 -5.774,-8.53c-1.4,-3.237 -2.099,-6.692 -2.099,-10.366Z" style="fill:#0b486e;fill-rule:nonzero;"/><path d="M557.609,371.115l0,-58.778l47.502,48.201l0,10.577l-47.502,0Zm0,-84.975l0,-135.875l47.502,0l0,93.438l-47.502,42.437Z" style="fill:#5ea5cf;fill-rule:nonzero;"/><path d="M713.508,347.445l-47.502,-48.201l47.502,-42.437l0,28.227l49.864,-48.552l69.022,0l-71.384,62.199l71.384,72.434l-66.66,0l-52.226,-54.85l0,31.18Z" style="fill:#5ea5cf;fill-rule:nonzero;"/><g><path d="M797.635,183.431l3.986,-2.067c1.968,3.477 3.428,6.151 4.379,8.021l-3.986,1.919c-1.509,-2.854 -2.969,-5.478 -4.379,-7.873Zm7.283,-1.772l4.084,-2.116c1.673,2.953 3.166,5.676 4.478,8.169l-4.085,1.968c-1.377,-2.624 -2.87,-5.298 -4.477,-8.021Zm-25.49,11.072c0,-3.608 1.058,-6.856 3.174,-9.743c2.116,-2.887 5.208,-5.265 9.275,-7.135l0,-0.099c-7.545,0.328 -15.074,0.492 -22.586,0.492l0,-4.674c13.122,0 26.49,-0.328 40.104,-0.984l0.247,4.674c-8.235,0.82 -14.41,2.74 -18.527,5.758c-4.117,3.018 -6.176,6.757 -6.176,11.219c0,3.74 1.189,6.659 3.568,8.759c2.378,2.1 5.536,3.149 9.472,3.149c1.837,0 3.871,-0.18 6.102,-0.541l0.591,4.724c-2.461,0.426 -4.774,0.64 -6.939,0.64c-5.61,0 -10.063,-1.452 -13.36,-4.355c-3.297,-2.903 -4.945,-6.865 -4.945,-11.884Z" style="fill:#0b486e;fill-rule:nonzero;"/><path d="M823.026,181.955c7.939,-1.936 13.926,-2.904 17.961,-2.904c10.038,0 15.058,4.183 15.058,12.548c0,10.432 -8.546,15.648 -25.638,15.648l-0.344,-4.674c7.25,0 12.515,-0.87 15.796,-2.608c3.28,-1.739 4.92,-4.363 4.92,-7.874c0,-2.854 -0.82,-4.945 -2.46,-6.274c-1.64,-1.328 -4.248,-1.993 -7.824,-1.993c-3.412,0 -8.874,0.919 -16.386,2.756l-1.083,-4.625Z" style="fill:#0b486e;fill-rule:nonzero;"/><path d="M879.566,165.962l4.773,0.541c-0.492,3.182 -1.082,6.381 -1.771,9.596l7.356,0c0.804,0 1.69,0.09 2.657,0.27c0.968,0.181 1.641,0.345 2.018,0.493c0.377,0.147 0.804,0.508 1.279,1.082c0.476,0.574 0.771,1.091 0.886,1.55c0.115,0.459 0.246,1.28 0.394,2.461c0.147,1.181 0.221,2.263 0.221,3.247l0,4.429c0,6.2 -0.746,10.826 -2.239,13.877c-1.492,3.051 -3.452,4.576 -5.88,4.576c-2.887,0 -6.282,-0.837 -10.186,-2.51l1.575,-4.478c3.444,1.378 5.987,2.067 7.627,2.067c0.459,0 0.918,-0.279 1.378,-0.836c0.459,-0.558 0.885,-1.395 1.279,-2.51c0.394,-1.115 0.705,-2.616 0.935,-4.503c0.23,-1.886 0.344,-4.026 0.344,-6.421l0,-2.805c0,-0.558 -0.032,-1.23 -0.098,-2.018c-0.066,-0.787 -0.115,-1.295 -0.148,-1.525c-0.032,-0.23 -0.164,-0.541 -0.393,-0.935c-0.23,-0.394 -0.41,-0.615 -0.542,-0.664c-0.131,-0.049 -0.434,-0.131 -0.91,-0.246c-0.476,-0.115 -0.877,-0.172 -1.206,-0.172l-1.623,0l-5.758,0c-2.329,9.546 -5.429,18.846 -9.3,27.9l-4.527,-1.722c3.641,-8.562 6.561,-17.288 8.759,-26.178l-8.119,0l0,-4.429l9.201,0c0.853,-3.806 1.526,-7.185 2.018,-10.137Zm19.289,7.676l4.626,-1.574c3.379,8.004 6.184,16.304 8.415,24.899l-4.774,1.132c-2.23,-8.628 -4.986,-16.78 -8.267,-24.457Z" style="fill:#0b486e;fill-rule:nonzero;"/><path d="M946.882,173.048l4.724,-1.476c2.198,4.264 3.88,9.111 5.044,14.541c1.165,5.429 1.747,11.03 1.747,16.804l-5.167,0c0,-5.347 -0.557,-10.629 -1.673,-15.845c-1.115,-5.216 -2.673,-9.891 -4.675,-14.024Zm-20.716,-0.591c-1.476,5.184 -2.214,10.662 -2.214,16.436c0,3.936 0.672,7.258 2.017,9.964c1.345,2.707 2.69,4.06 4.035,4.06c0.919,0 2.116,-1 3.592,-3.002c1.477,-2.001 2.936,-4.855 4.38,-8.562l4.675,1.821c-1.641,4.658 -3.683,8.308 -6.127,10.949c-2.444,2.641 -4.748,3.961 -6.914,3.961c-2.69,0 -5.166,-1.87 -7.43,-5.61c-2.264,-3.74 -3.395,-8.267 -3.395,-13.581c0,-6.135 0.787,-11.81 2.362,-17.026l5.019,0.59Z" style="fill:#0b486e;fill-rule:nonzero;"/></g></g><g><path d="M461.066,456.925l0,8.87l4.147,0c0.038,0.614 -0.039,1.219 -0.231,1.814c-0.192,0.596 -0.48,1.133 -0.864,1.613c-0.384,0.48 -0.835,0.893 -1.353,1.239c-0.519,0.345 -1.066,0.576 -1.642,0.691l0,4.147c1.229,-0.192 2.391,-0.547 3.485,-1.066c1.094,-0.518 2.045,-1.18 2.851,-1.987c0.807,-0.806 1.45,-1.757 1.93,-2.851c0.48,-1.094 0.72,-2.294 0.72,-3.6l0,-8.87l-9.043,0Z" style="fill:#0b486e;fill-rule:nonzero;"/><path d="M497.814,450.819c0,1.229 -0.115,2.419 -0.345,3.571c-0.231,1.152 -0.615,2.179 -1.152,3.082c-0.538,0.902 -1.258,1.622 -2.16,2.16c-0.903,0.537 -2.026,0.806 -3.37,0.806c-1.267,0 -2.352,-0.278 -3.254,-0.835c-0.903,-0.557 -1.651,-1.286 -2.247,-2.189c-0.595,-0.902 -1.027,-1.929 -1.296,-3.081c-0.268,-1.152 -0.403,-2.304 -0.403,-3.456c0,-1.229 0.125,-2.41 0.375,-3.543c0.249,-1.133 0.652,-2.141 1.209,-3.024c0.557,-0.883 1.296,-1.593 2.218,-2.131c0.921,-0.538 2.054,-0.806 3.398,-0.806c1.344,0 2.458,0.268 3.341,0.806c0.883,0.538 1.603,1.238 2.16,2.102c0.557,0.864 0.95,1.863 1.181,2.996c0.23,1.132 0.345,2.313 0.345,3.542Zm0.116,11.174l0,3.802l7.776,0l0,-41.126l-8.18,0l0,14.976l-0.115,0c-0.921,-1.46 -2.179,-2.564 -3.773,-3.312c-1.593,-0.749 -3.273,-1.124 -5.04,-1.124c-2.188,0 -4.108,0.432 -5.76,1.296c-1.651,0.864 -3.024,2.007 -4.118,3.428c-1.094,1.42 -1.92,3.062 -2.477,4.924c-0.557,1.863 -0.835,3.792 -0.835,5.789c0,2.074 0.278,4.071 0.835,5.991c0.557,1.92 1.383,3.619 2.477,5.097c1.094,1.479 2.486,2.65 4.176,3.514c1.69,0.864 3.648,1.296 5.875,1.296c1.959,0 3.715,-0.355 5.271,-1.066c1.555,-0.71 2.812,-1.872 3.772,-3.485l0.116,0Z" style="fill:#0b486e;fill-rule:nonzero;"/><path d="M511.523,445.174c0.115,-1.92 0.595,-3.513 1.44,-4.781c0.845,-1.267 1.92,-2.284 3.226,-3.052c1.305,-0.768 2.774,-1.316 4.406,-1.642c1.632,-0.326 3.274,-0.49 4.925,-0.49c1.498,0 3.014,0.106 4.55,0.317c1.536,0.211 2.938,0.624 4.205,1.239c1.267,0.614 2.304,1.468 3.111,2.563c0.806,1.094 1.209,2.544 1.209,4.349l0,15.494c0,1.344 0.077,2.63 0.231,3.859c0.153,1.229 0.422,2.151 0.806,2.765l-8.294,0c-0.154,-0.461 -0.279,-0.931 -0.375,-1.411c-0.096,-0.48 -0.163,-0.97 -0.201,-1.469c-1.306,1.344 -2.842,2.285 -4.608,2.822c-1.767,0.538 -3.572,0.807 -5.415,0.807c-1.421,0 -2.745,-0.173 -3.974,-0.519c-1.229,-0.345 -2.304,-0.883 -3.226,-1.612c-0.921,-0.73 -1.641,-1.652 -2.16,-2.765c-0.518,-1.114 -0.777,-2.439 -0.777,-3.975c0,-1.689 0.297,-3.081 0.892,-4.176c0.596,-1.094 1.364,-1.968 2.304,-2.62c0.941,-0.653 2.016,-1.143 3.226,-1.469c1.21,-0.327 2.429,-0.586 3.658,-0.778c1.228,-0.192 2.438,-0.345 3.628,-0.461c1.191,-0.115 2.247,-0.288 3.168,-0.518c0.922,-0.23 1.652,-0.566 2.189,-1.008c0.538,-0.442 0.787,-1.085 0.749,-1.93c0,-0.883 -0.144,-1.584 -0.432,-2.102c-0.288,-0.518 -0.672,-0.922 -1.152,-1.21c-0.48,-0.288 -1.037,-0.48 -1.67,-0.576c-0.634,-0.096 -1.316,-0.144 -2.045,-0.144c-1.613,0 -2.88,0.346 -3.802,1.037c-0.921,0.691 -1.459,1.843 -1.613,3.456l-8.179,0Zm18.893,6.048c-0.346,0.307 -0.778,0.547 -1.296,0.72c-0.518,0.173 -1.075,0.317 -1.67,0.432c-0.596,0.115 -1.22,0.211 -1.872,0.288c-0.653,0.077 -1.306,0.173 -1.959,0.288c-0.614,0.115 -1.219,0.269 -1.814,0.461c-0.595,0.192 -1.114,0.451 -1.555,0.778c-0.442,0.326 -0.797,0.739 -1.066,1.238c-0.269,0.499 -0.403,1.133 -0.403,1.901c0,0.729 0.134,1.344 0.403,1.843c0.269,0.499 0.634,0.893 1.094,1.181c0.461,0.288 0.999,0.489 1.613,0.605c0.615,0.115 1.248,0.172 1.901,0.172c1.613,0 2.861,-0.268 3.744,-0.806c0.883,-0.538 1.536,-1.181 1.958,-1.93c0.423,-0.748 0.682,-1.507 0.778,-2.275c0.096,-0.768 0.144,-1.382 0.144,-1.843l0,-3.053Z" style="fill:#0b486e;fill-rule:nonzero;"/><path d="M555.299,436.016l0,-8.928l-8.179,0l0,8.928l-4.954,0l0,5.472l4.954,0l0,17.568c0,1.497 0.25,2.707 0.749,3.629c0.499,0.921 1.181,1.632 2.045,2.131c0.864,0.499 1.862,0.835 2.995,1.008c1.133,0.173 2.333,0.259 3.6,0.259c0.806,0 1.632,-0.019 2.477,-0.058c0.844,-0.038 1.612,-0.115 2.304,-0.23l0,-6.336c-0.384,0.077 -0.788,0.134 -1.21,0.173c-0.422,0.038 -0.864,0.057 -1.325,0.057c-1.382,0 -2.304,-0.23 -2.765,-0.691c-0.46,-0.461 -0.691,-1.382 -0.691,-2.765l0,-14.745l5.991,0l0,-5.472l-5.991,0Z" style="fill:#0b486e;fill-rule:nonzero;"/><path d="M564.861,445.174c0.115,-1.92 0.595,-3.513 1.44,-4.781c0.845,-1.267 1.92,-2.284 3.225,-3.052c1.306,-0.768 2.775,-1.316 4.407,-1.642c1.632,-0.326 3.273,-0.49 4.925,-0.49c1.497,0 3.014,0.106 4.55,0.317c1.536,0.211 2.938,0.624 4.205,1.239c1.267,0.614 2.304,1.468 3.11,2.563c0.807,1.094 1.21,2.544 1.21,4.349l0,15.494c0,1.344 0.077,2.63 0.23,3.859c0.154,1.229 0.423,2.151 0.807,2.765l-8.295,0c-0.153,-0.461 -0.278,-0.931 -0.374,-1.411c-0.096,-0.48 -0.163,-0.97 -0.202,-1.469c-1.305,1.344 -2.841,2.285 -4.608,2.822c-1.766,0.538 -3.571,0.807 -5.414,0.807c-1.421,0 -2.746,-0.173 -3.975,-0.519c-1.228,-0.345 -2.304,-0.883 -3.225,-1.612c-0.922,-0.73 -1.642,-1.652 -2.16,-2.765c-0.519,-1.114 -0.778,-2.439 -0.778,-3.975c0,-1.689 0.298,-3.081 0.893,-4.176c0.595,-1.094 1.363,-1.968 2.304,-2.62c0.941,-0.653 2.016,-1.143 3.226,-1.469c1.209,-0.327 2.428,-0.586 3.657,-0.778c1.229,-0.192 2.439,-0.345 3.629,-0.461c1.19,-0.115 2.246,-0.288 3.168,-0.518c0.922,-0.23 1.651,-0.566 2.189,-1.008c0.537,-0.442 0.787,-1.085 0.749,-1.93c0,-0.883 -0.144,-1.584 -0.432,-2.102c-0.288,-0.518 -0.672,-0.922 -1.152,-1.21c-0.48,-0.288 -1.037,-0.48 -1.671,-0.576c-0.633,-0.096 -1.315,-0.144 -2.045,-0.144c-1.612,0 -2.88,0.346 -3.801,1.037c-0.922,0.691 -1.459,1.843 -1.613,3.456l-8.179,0Zm18.893,6.048c-0.346,0.307 -0.778,0.547 -1.296,0.72c-0.519,0.173 -1.076,0.317 -1.671,0.432c-0.595,0.115 -1.219,0.211 -1.872,0.288c-0.653,0.077 -1.305,0.173 -1.958,0.288c-0.615,0.115 -1.219,0.269 -1.815,0.461c-0.595,0.192 -1.113,0.451 -1.555,0.778c-0.441,0.326 -0.797,0.739 -1.065,1.238c-0.269,0.499 -0.404,1.133 -0.404,1.901c0,0.729 0.135,1.344 0.404,1.843c0.268,0.499 0.633,0.893 1.094,1.181c0.461,0.288 0.998,0.489 1.613,0.605c0.614,0.115 1.248,0.172 1.901,0.172c1.612,0 2.86,-0.268 3.744,-0.806c0.883,-0.538 1.536,-1.181 1.958,-1.93c0.422,-0.748 0.682,-1.507 0.778,-2.275c0.096,-0.768 0.144,-1.382 0.144,-1.843l0,-3.053Z" style="fill:#0b486e;fill-rule:nonzero;"/><rect x="598.211" y="446.557" width="17.338" height="7.027" style="fill:#0b486e;fill-rule:nonzero;"/><path d="M628.048,456.118l-7.776,0c0.077,1.997 0.528,3.658 1.354,4.983c0.825,1.324 1.881,2.39 3.168,3.196c1.286,0.807 2.755,1.383 4.406,1.728c1.651,0.346 3.341,0.519 5.069,0.519c1.689,0 3.35,-0.163 4.982,-0.49c1.632,-0.326 3.082,-0.893 4.349,-1.699c1.267,-0.806 2.294,-1.872 3.082,-3.197c0.787,-1.325 1.18,-2.966 1.18,-4.925c0,-1.382 -0.268,-2.544 -0.806,-3.484c-0.538,-0.941 -1.248,-1.728 -2.131,-2.362c-0.883,-0.634 -1.891,-1.142 -3.024,-1.526c-1.133,-0.384 -2.295,-0.711 -3.485,-0.98c-1.152,-0.268 -2.285,-0.518 -3.398,-0.748c-1.114,-0.231 -2.103,-0.49 -2.967,-0.778c-0.864,-0.288 -1.565,-0.662 -2.102,-1.123c-0.538,-0.461 -0.807,-1.056 -0.807,-1.786c0,-0.614 0.154,-1.104 0.461,-1.469c0.307,-0.364 0.682,-0.643 1.123,-0.835c0.442,-0.192 0.932,-0.317 1.469,-0.374c0.538,-0.058 1.037,-0.087 1.498,-0.087c1.459,0 2.726,0.279 3.801,0.836c1.076,0.556 1.671,1.622 1.786,3.196l7.776,0c-0.154,-1.843 -0.624,-3.369 -1.411,-4.579c-0.787,-1.209 -1.776,-2.179 -2.967,-2.909c-1.19,-0.729 -2.544,-1.248 -4.06,-1.555c-1.517,-0.307 -3.082,-0.461 -4.695,-0.461c-1.613,0 -3.187,0.144 -4.723,0.432c-1.536,0.288 -2.918,0.788 -4.147,1.498c-1.229,0.71 -2.218,1.68 -2.967,2.909c-0.748,1.229 -1.123,2.803 -1.123,4.723c0,1.306 0.269,2.41 0.807,3.312c0.537,0.902 1.248,1.651 2.131,2.246c0.883,0.596 1.891,1.076 3.024,1.44c1.133,0.365 2.294,0.682 3.485,0.951c2.918,0.614 5.193,1.229 6.825,1.843c1.632,0.614 2.448,1.536 2.448,2.765c0,0.729 -0.173,1.334 -0.518,1.814c-0.346,0.48 -0.778,0.864 -1.296,1.152c-0.519,0.288 -1.095,0.499 -1.728,0.634c-0.634,0.134 -1.239,0.201 -1.815,0.201c-0.806,0 -1.584,-0.096 -2.332,-0.288c-0.749,-0.192 -1.412,-0.489 -1.988,-0.892c-0.576,-0.404 -1.046,-0.922 -1.411,-1.556c-0.365,-0.633 -0.547,-1.392 -0.547,-2.275Z" style="fill:#0b486e;fill-rule:nonzero;"/><path d="M659.901,450.934c0,-1.19 0.115,-2.361 0.345,-3.513c0.231,-1.152 0.624,-2.17 1.181,-3.053c0.557,-0.883 1.296,-1.603 2.218,-2.16c0.921,-0.557 2.073,-0.835 3.456,-0.835c1.382,0 2.544,0.278 3.485,0.835c0.94,0.557 1.689,1.277 2.246,2.16c0.557,0.883 0.95,1.901 1.181,3.053c0.23,1.152 0.345,2.323 0.345,3.513c0,1.191 -0.115,2.352 -0.345,3.485c-0.231,1.133 -0.624,2.15 -1.181,3.053c-0.557,0.902 -1.306,1.622 -2.246,2.16c-0.941,0.537 -2.103,0.806 -3.485,0.806c-1.383,0 -2.535,-0.269 -3.456,-0.806c-0.922,-0.538 -1.661,-1.258 -2.218,-2.16c-0.557,-0.903 -0.95,-1.92 -1.181,-3.053c-0.23,-1.133 -0.345,-2.294 -0.345,-3.485Zm-8.179,0c0,2.381 0.364,4.531 1.094,6.451c0.73,1.92 1.766,3.562 3.11,4.925c1.344,1.363 2.957,2.41 4.839,3.139c1.881,0.73 3.993,1.095 6.336,1.095c2.342,0 4.464,-0.365 6.365,-1.095c1.9,-0.729 3.523,-1.776 4.867,-3.139c1.344,-1.363 2.381,-3.005 3.11,-4.925c0.73,-1.92 1.095,-4.07 1.095,-6.451c0,-2.381 -0.365,-4.541 -1.095,-6.48c-0.729,-1.939 -1.766,-3.59 -3.11,-4.953c-1.344,-1.364 -2.967,-2.42 -4.867,-3.168c-1.901,-0.749 -4.023,-1.124 -6.365,-1.124c-2.343,0 -4.455,0.375 -6.336,1.124c-1.882,0.748 -3.495,1.804 -4.839,3.168c-1.344,1.363 -2.38,3.014 -3.11,4.953c-0.73,1.939 -1.094,4.099 -1.094,6.48Z" style="fill:#0b486e;fill-rule:nonzero;"/><path d="M715.773,465.795l0,-29.779l-8.179,0l0,15.609c0,3.034 -0.5,5.213 -1.498,6.538c-0.998,1.325 -2.611,1.987 -4.838,1.987c-1.959,0 -3.322,-0.605 -4.09,-1.814c-0.768,-1.21 -1.152,-3.043 -1.152,-5.501l0,-16.819l-8.179,0l0,18.317c0,1.843 0.163,3.523 0.489,5.04c0.327,1.516 0.893,2.803 1.7,3.859c0.806,1.056 1.91,1.872 3.312,2.448c1.401,0.576 3.196,0.864 5.385,0.864c1.728,0 3.418,-0.384 5.069,-1.152c1.651,-0.768 2.995,-2.016 4.032,-3.744l0.173,0l0,4.147l7.776,0Z" style="fill:#0b486e;fill-rule:nonzero;"/><path d="M721.994,436.016l0,29.779l8.179,0l0,-13.421c0,-1.344 0.134,-2.592 0.403,-3.744c0.269,-1.152 0.72,-2.16 1.354,-3.024c0.633,-0.864 1.468,-1.545 2.505,-2.045c1.037,-0.499 2.304,-0.748 3.802,-0.748c0.499,0 1.017,0.028 1.555,0.086c0.538,0.058 0.998,0.125 1.382,0.202l0,-7.604c-0.652,-0.192 -1.248,-0.288 -1.785,-0.288c-1.037,0 -2.035,0.154 -2.995,0.461c-0.96,0.307 -1.863,0.739 -2.708,1.296c-0.844,0.557 -1.593,1.229 -2.246,2.016c-0.653,0.787 -1.171,1.642 -1.555,2.563l-0.115,0l0,-5.529l-7.776,0Z" style="fill:#0b486e;fill-rule:nonzero;"/><path d="M763.638,446.499l8.007,0c-0.115,-1.92 -0.576,-3.581 -1.383,-4.982c-0.806,-1.402 -1.852,-2.573 -3.139,-3.514c-1.286,-0.941 -2.745,-1.642 -4.377,-2.102c-1.632,-0.461 -3.332,-0.692 -5.098,-0.692c-2.419,0 -4.57,0.404 -6.451,1.21c-1.882,0.806 -3.475,1.93 -4.781,3.37c-1.306,1.44 -2.294,3.148 -2.966,5.126c-0.672,1.978 -1.008,4.118 -1.008,6.422c0,2.228 0.364,4.272 1.094,6.135c0.73,1.862 1.747,3.465 3.053,4.809c1.305,1.344 2.889,2.391 4.752,3.14c1.862,0.748 3.907,1.123 6.134,1.123c3.955,0 7.2,-1.037 9.735,-3.111c2.534,-2.073 4.07,-5.088 4.608,-9.043l-7.892,0c-0.268,1.843 -0.931,3.312 -1.987,4.407c-1.056,1.094 -2.563,1.641 -4.521,1.641c-1.268,0 -2.343,-0.288 -3.226,-0.864c-0.883,-0.576 -1.584,-1.315 -2.102,-2.217c-0.519,-0.903 -0.893,-1.911 -1.124,-3.024c-0.23,-1.114 -0.345,-2.208 -0.345,-3.284c0,-1.113 0.115,-2.236 0.345,-3.369c0.231,-1.133 0.624,-2.17 1.181,-3.111c0.557,-0.94 1.277,-1.708 2.16,-2.304c0.883,-0.595 1.978,-0.892 3.283,-0.892c3.495,0 5.511,1.708 6.048,5.126Z" style="fill:#0b486e;fill-rule:nonzero;"/><path d="M796.47,447.709l-13.305,0c0.038,-0.576 0.163,-1.229 0.374,-1.959c0.211,-0.729 0.576,-1.421 1.095,-2.073c0.518,-0.653 1.209,-1.2 2.073,-1.642c0.864,-0.442 1.949,-0.662 3.255,-0.662c1.996,0 3.484,0.537 4.464,1.612c0.979,1.076 1.66,2.65 2.044,4.724Zm-13.305,5.184l21.485,0c0.153,-2.304 -0.039,-4.512 -0.576,-6.624c-0.538,-2.112 -1.412,-3.994 -2.621,-5.645c-1.21,-1.651 -2.755,-2.967 -4.637,-3.946c-1.882,-0.979 -4.09,-1.469 -6.624,-1.469c-2.266,0 -4.33,0.404 -6.192,1.21c-1.862,0.806 -3.466,1.91 -4.81,3.312c-1.344,1.402 -2.38,3.062 -3.11,4.982c-0.73,1.92 -1.094,3.994 -1.094,6.221c0,2.304 0.355,4.416 1.065,6.336c0.711,1.92 1.719,3.571 3.024,4.954c1.306,1.382 2.899,2.448 4.781,3.197c1.882,0.748 3.994,1.123 6.336,1.123c3.379,0 6.259,-0.768 8.64,-2.304c2.381,-1.536 4.147,-4.09 5.299,-7.661l-7.2,0c-0.269,0.922 -0.998,1.795 -2.189,2.621c-1.19,0.825 -2.611,1.238 -4.262,1.238c-2.304,0 -4.07,-0.595 -5.299,-1.785c-1.229,-1.191 -1.901,-3.111 -2.016,-5.76Z" style="fill:#0b486e;fill-rule:nonzero;"/><path d="M809.891,456.925l0,8.87l4.147,0c0.039,0.614 -0.038,1.219 -0.23,1.814c-0.192,0.596 -0.48,1.133 -0.864,1.613c-0.384,0.48 -0.835,0.893 -1.354,1.239c-0.518,0.345 -1.065,0.576 -1.641,0.691l0,4.147c1.229,-0.192 2.39,-0.547 3.485,-1.066c1.094,-0.518 2.044,-1.18 2.851,-1.987c0.806,-0.806 1.449,-1.757 1.929,-2.851c0.48,-1.094 0.72,-2.294 0.72,-3.6l0,-8.87l-9.043,0Z" style="fill:#0b486e;fill-rule:nonzero;"/></g></svg>