<?xml version="1.0" encoding="UTF-8" standalone="no"?><!DOCTYPE svg PUBLIC "-//W3C//DTD SVG 1.1//EN" "http://www.w3.org/Graphics/SVG/1.1/DTD/svg11.dtd"><svg width="100%" height="100%" viewBox="0 0 1280 640" version="1.1" xmlns="http://www.w3.org/2000/svg" xmlns:xlink="http://www.w3.org/1999/xlink" xml:space="preserve" xmlns:serif="http://www.serif.com/" style="fill-rule:evenodd;clip-rule:evenodd;stroke-linejoin:round;stroke-miterlimit:2;"><rect x="0" y="0" width="1280" height="640" style="fill:#0b486e;"/><g><path d="M605.111,347.445l-47.502,-48.201l47.502,-42.437l0,28.227l49.864,-48.552l69.022,0l-71.384,62.199l71.384,72.434l-66.66,0l-52.226,-54.85l0,31.18Z" style="fill:#fff;fill-rule:nonzero;"/><path d="M180.069,398.958c4.899,-2.624 8.792,-5.161 11.679,-7.611c2.887,-2.449 5.074,-4.767 6.561,-6.954c1.487,-2.187 2.45,-4.243 2.887,-6.168c0.437,-1.924 0.656,-3.761 0.656,-5.511c0,-3.149 -1.312,-4.724 -3.937,-4.724c-12.247,0 -18.371,-5.774 -18.371,-17.321c0,-6.474 1.838,-11.416 5.512,-14.828c3.674,-3.412 8.748,-5.118 15.221,-5.118c7.874,0 13.91,2.275 18.109,6.824c4.199,4.549 6.299,11.285 6.299,20.208c0,12.072 -3.281,22.045 -9.842,29.918c-6.561,7.874 -16.14,14.872 -28.737,20.996l-6.037,-9.711Z" style="fill:#fff;fill-rule:nonzero;"/><path d="M1055.84,398.958c4.899,-2.624 8.792,-5.161 11.679,-7.611c2.887,-2.449 5.074,-4.767 6.561,-6.954c1.487,-2.187 2.45,-4.243 2.887,-6.168c0.437,-1.924 0.656,-3.761 0.656,-5.511c0,-3.149 -1.312,-4.724 -3.937,-4.724c-12.247,0 -18.371,-5.774 -18.371,-17.321c0,-6.474 1.838,-11.416 5.512,-14.828c3.674,-3.412 8.748,-5.118 15.221,-5.118c7.874,0 13.91,2.275 18.109,6.824c4.199,4.549 6.299,11.285 6.299,20.208c0,12.072 -3.281,22.045 -9.842,29.918c-6.561,7.874 -16.14,14.872 -28.737,20.996l-6.037,-9.711Z" style="fill:#fff;fill-rule:nonzero;"/><path d="M272.79,300.382c0,4.374 0.787,8.442 2.362,12.203c1.575,3.762 3.718,7.042 6.43,9.842c2.712,2.799 5.948,4.986 9.71,6.561c3.762,1.574 7.83,2.362 12.204,2.362c4.199,0 8.179,-0.788 11.941,-2.362c3.761,-1.575 6.998,-3.762 9.71,-6.561c2.712,-2.8 4.899,-6.036 6.561,-9.711c1.662,-3.674 2.493,-7.61 2.493,-11.809c0,-4.2 -0.831,-8.18 -2.493,-11.942c-1.662,-3.761 -3.849,-7.042 -6.561,-9.841c-2.712,-2.8 -5.949,-4.987 -9.71,-6.561c-3.762,-1.575 -7.742,-2.362 -11.941,-2.362c-4.199,0 -8.18,0.787 -11.941,2.362c-3.762,1.574 -6.999,3.761 -9.711,6.561c-2.712,2.799 -4.899,5.992 -6.561,9.579c-1.662,3.587 -2.493,7.48 -2.493,11.679Zm59.837,-150.117l47.764,0l0,217.827l-47.764,0l0,-14.959c-10.148,12.772 -23.882,19.158 -41.204,19.158c-9.798,0 -18.808,-1.837 -27.031,-5.511c-8.223,-3.675 -15.397,-8.749 -21.52,-15.222c-6.124,-6.474 -10.892,-14.085 -14.304,-22.833c-3.411,-8.748 -5.117,-18.196 -5.117,-28.343c0,-9.623 1.618,-18.765 4.855,-27.426c3.237,-8.66 7.829,-16.227 13.778,-22.701c5.949,-6.473 13.079,-11.591 21.389,-15.353c8.311,-3.761 17.453,-5.642 27.425,-5.642c16.797,0 30.706,5.861 41.729,17.583l0,-96.578Z" style="fill:#fff;fill-rule:nonzero;"/><path d="M496.653,281.223c-1.574,-6.648 -4.811,-11.985 -9.71,-16.009c-4.899,-4.024 -10.848,-6.036 -17.846,-6.036c-7.349,0 -13.341,1.925 -17.978,5.774c-4.636,3.849 -7.567,9.273 -8.791,16.271l54.325,0Zm-55.638,27.557c0,20.47 9.623,30.706 28.869,30.706c10.323,0 18.109,-4.2 23.357,-12.598l45.928,0c-9.273,30.794 -32.456,46.19 -69.547,46.19c-11.373,0 -21.783,-1.706 -31.231,-5.118c-9.448,-3.411 -17.54,-8.266 -24.276,-14.565c-6.736,-6.299 -11.941,-13.822 -15.615,-22.57c-3.674,-8.748 -5.512,-18.546 -5.512,-29.394c0,-11.197 1.75,-21.301 5.249,-30.312c3.5,-9.01 8.486,-16.665 14.96,-22.963c6.473,-6.299 14.303,-11.154 23.488,-14.566c9.186,-3.412 19.552,-5.118 31.1,-5.118c11.372,0 21.607,1.706 30.705,5.118c9.098,3.412 16.797,8.354 23.095,14.828c6.299,6.474 11.11,14.391 14.435,23.751c3.324,9.361 4.986,19.902 4.986,31.624l0,4.987l-99.991,0Z" style="fill:#fff;fill-rule:nonzero;"/><path d="M862.77,300.382c0,4.374 0.787,8.442 2.362,12.203c1.574,3.762 3.718,7.042 6.429,9.842c2.712,2.799 5.949,4.986 9.711,6.561c3.762,1.574 7.829,2.362 12.203,2.362c4.199,0 8.18,-0.788 11.942,-2.362c3.761,-1.575 6.998,-3.762 9.71,-6.561c2.712,-2.8 4.899,-6.036 6.561,-9.711c1.662,-3.674 2.493,-7.61 2.493,-11.809c0,-4.2 -0.831,-8.18 -2.493,-11.942c-1.662,-3.761 -3.849,-7.042 -6.561,-9.841c-2.712,-2.8 -5.949,-4.987 -9.71,-6.561c-3.762,-1.575 -7.743,-2.362 -11.942,-2.362c-4.374,0 -8.441,0.787 -12.203,2.362c-3.762,1.574 -6.999,3.761 -9.711,6.561c-2.711,2.799 -4.855,5.992 -6.429,9.579c-1.575,3.587 -2.362,7.48 -2.362,11.679Zm59.837,-66.923l47.764,0l0,134.633l-47.764,0l0,-14.959c-10.148,12.772 -23.883,19.158 -41.204,19.158c-9.798,0 -18.808,-1.794 -27.031,-5.38c-8.224,-3.587 -15.397,-8.617 -21.521,-15.091c-6.123,-6.473 -10.891,-14.084 -14.303,-22.832c-3.412,-8.748 -5.117,-18.284 -5.117,-28.606c0,-9.623 1.662,-18.765 4.986,-27.426c3.324,-8.66 7.961,-16.227 13.909,-22.701c5.949,-6.473 13.035,-11.591 21.258,-15.353c8.223,-3.761 17.321,-5.642 27.294,-5.642c16.796,0 30.706,5.861 41.729,17.583l0,-13.384Z" style="fill:#fff;fill-rule:nonzero;"/><path d="M1040.97,233.459l0,134.633l-47.502,0l0,-134.633l47.502,0Zm-50.651,-51.701c0,-3.674 0.699,-7.13 2.099,-10.367c1.4,-3.237 3.324,-6.08 5.774,-8.529c2.449,-2.45 5.292,-4.374 8.529,-5.774c3.237,-1.4 6.693,-2.099 10.367,-2.099c3.674,0 7.129,0.699 10.366,2.099c3.237,1.4 6.08,3.324 8.53,5.774c2.449,2.449 4.374,5.292 5.773,8.529c1.4,3.237 2.1,6.693 2.1,10.367c0,3.674 -0.7,7.129 -2.1,10.366c-1.399,3.237 -3.324,6.08 -5.773,8.53c-2.45,2.449 -5.293,4.374 -8.53,5.773c-3.237,1.4 -6.692,2.1 -10.366,2.1c-3.674,0 -7.13,-0.7 -10.367,-2.1c-3.237,-1.399 -6.08,-3.324 -8.529,-5.773c-2.45,-2.45 -4.374,-5.293 -5.774,-8.53c-1.4,-3.237 -2.099,-6.692 -2.099,-10.366Z" style="fill:#fff;fill-rule:nonzero;"/><path d="M557.609,371.115l0,-58.778l47.502,48.201l0,10.577l-47.502,0Zm0,-84.975l0,-135.875l47.502,0l0,93.438l-47.502,42.437Z" style="fill:#5ea5cf;fill-rule:nonzero;"/><path d="M713.508,347.445l-47.502,-48.201l47.502,-42.437l0,28.227l49.864,-48.552l69.022,0l-71.384,62.199l71.384,72.434l-66.66,0l-52.226,-54.85l0,31.18Z" style="fill:#5ea5cf;fill-rule:nonzero;"/><g><path d="M797.635,183.431l3.986,-2.067c1.968,3.477 3.428,6.151 4.379,8.021l-3.986,1.919c-1.509,-2.854 -2.969,-5.478 -4.379,-7.873Zm7.283,-1.772l4.084,-2.116c1.673,2.953 3.166,5.676 4.478,8.169l-4.085,1.968c-1.377,-2.624 -2.87,-5.298 -4.477,-8.021Zm-25.49,11.072c0,-3.608 1.058,-6.856 3.174,-9.743c2.116,-2.887 5.208,-5.265 9.275,-7.135l0,-0.099c-7.545,0.328 -15.074,0.492 -22.586,0.492l0,-4.674c13.122,0 26.49,-0.328 40.104,-0.984l0.247,4.674c-8.235,0.82 -14.41,2.74 -18.527,5.758c-4.117,3.018 -6.176,6.757 -6.176,11.219c0,3.74 1.189,6.659 3.568,8.759c2.378,2.1 5.536,3.149 9.472,3.149c1.837,0 3.871,-0.18 6.102,-0.541l0.591,4.724c-2.461,0.426 -4.774,0.64 -6.939,0.64c-5.61,0 -10.063,-1.452 -13.36,-4.355c-3.297,-2.903 -4.945,-6.865 -4.945,-11.884Z" style="fill:#fff;fill-rule:nonzero;"/><path d="M823.026,181.955c7.939,-1.936 13.926,-2.904 17.961,-2.904c10.038,0 15.058,4.183 15.058,12.548c0,10.432 -8.546,15.648 -25.638,15.648l-0.344,-4.674c7.25,0 12.515,-0.87 15.796,-2.608c3.28,-1.739 4.92,-4.363 4.92,-7.874c0,-2.854 -0.82,-4.945 -2.46,-6.274c-1.64,-1.328 -4.248,-1.993 -7.824,-1.993c-3.412,0 -8.874,0.919 -16.386,2.756l-1.083,-4.625Z" style="fill:#fff;fill-rule:nonzero;"/><path d="M879.566,165.962l4.773,0.541c-0.492,3.182 -1.082,6.381 -1.771,9.596l7.356,0c0.804,0 1.69,0.09 2.657,0.27c0.968,0.181 1.641,0.345 2.018,0.493c0.377,0.147 0.804,0.508 1.279,1.082c0.476,0.574 0.771,1.091 0.886,1.55c0.115,0.459 0.246,1.28 0.394,2.461c0.147,1.181 0.221,2.263 0.221,3.247l0,4.429c0,6.2 -0.746,10.826 -2.239,13.877c-1.492,3.051 -3.452,4.576 -5.88,4.576c-2.887,0 -6.282,-0.837 -10.186,-2.51l1.575,-4.478c3.444,1.378 5.987,2.067 7.627,2.067c0.459,0 0.918,-0.279 1.378,-0.836c0.459,-0.558 0.885,-1.395 1.279,-2.51c0.394,-1.115 0.705,-2.616 0.935,-4.503c0.23,-1.886 0.344,-4.026 0.344,-6.421l0,-2.805c0,-0.558 -0.032,-1.23 -0.098,-2.018c-0.066,-0.787 -0.115,-1.295 -0.148,-1.525c-0.032,-0.23 -0.164,-0.541 -0.393,-0.935c-0.23,-0.394 -0.41,-0.615 -0.542,-0.664c-0.131,-0.049 -0.434,-0.131 -0.91,-0.246c-0.476,-0.115 -0.877,-0.172 -1.206,-0.172l-1.623,0l-5.758,0c-2.329,9.546 -5.429,18.846 -9.3,27.9l-4.527,-1.722c3.641,-8.562 6.561,-17.288 8.759,-26.178l-8.119,0l0,-4.429l9.201,0c0.853,-3.806 1.526,-7.185 2.018,-10.137Zm19.289,7.676l4.626,-1.574c3.379,8.004 6.184,16.304 8.415,24.899l-4.774,1.132c-2.23,-8.628 -4.986,-16.78 -8.267,-24.457Z" style="fill:#fff;fill-rule:nonzero;"/><path d="M946.882,173.048l4.724,-1.476c2.198,4.264 3.88,9.111 5.044,14.541c1.165,5.429 1.747,11.03 1.747,16.804l-5.167,0c0,-5.347 -0.557,-10.629 -1.673,-15.845c-1.115,-5.216 -2.673,-9.891 -4.675,-14.024Zm-20.716,-0.591c-1.476,5.184 -2.214,10.662 -2.214,16.436c0,3.936 0.672,7.258 2.017,9.964c1.345,2.707 2.69,4.06 4.035,4.06c0.919,0 2.116,-1 3.592,-3.002c1.477,-2.001 2.936,-4.855 4.38,-8.562l4.675,1.821c-1.641,4.658 -3.683,8.308 -6.127,10.949c-2.444,2.641 -4.748,3.961 -6.914,3.961c-2.69,0 -5.166,-1.87 -7.43,-5.61c-2.264,-3.74 -3.395,-8.267 -3.395,-13.581c0,-6.135 0.787,-11.81 2.362,-17.026l5.019,0.59Z" style="fill:#fff;fill-rule:nonzero;"/></g></g><g><path d="M445.082,456.925l0,8.87l4.147,0c0.038,0.614 -0.039,1.219 -0.231,1.814c-0.192,0.596 -0.48,1.133 -0.864,1.613c-0.384,0.48 -0.835,0.893 -1.353,1.239c-0.519,0.345 -1.066,0.576 -1.642,0.691l0,4.147c1.229,-0.192 2.391,-0.547 3.485,-1.066c1.094,-0.518 2.045,-1.18 2.851,-1.987c0.807,-0.806 1.45,-1.757 1.93,-2.851c0.48,-1.094 0.72,-2.294 0.72,-3.6l0,-8.87l-9.043,0Z" style="fill:#fff;fill-rule:nonzero;"/><path d="M480.736,447.709l-13.306,0c0.039,-0.576 0.164,-1.229 0.375,-1.959c0.211,-0.729 0.576,-1.421 1.094,-2.073c0.519,-0.653 1.21,-1.2 2.074,-1.642c0.864,-0.442 1.949,-0.662 3.254,-0.662c1.997,0 3.485,0.537 4.464,1.612c0.979,1.076 1.661,2.65 2.045,4.724Zm-13.306,5.184l21.485,0c0.154,-2.304 -0.038,-4.512 -0.576,-6.624c-0.537,-2.112 -1.411,-3.994 -2.621,-5.645c-1.209,-1.651 -2.755,-2.967 -4.636,-3.946c-1.882,-0.979 -4.09,-1.469 -6.624,-1.469c-2.266,0 -4.33,0.404 -6.192,1.21c-1.863,0.806 -3.466,1.91 -4.81,3.312c-1.344,1.402 -2.381,3.062 -3.11,4.982c-0.73,1.92 -1.095,3.994 -1.095,6.221c0,2.304 0.355,4.416 1.066,6.336c0.71,1.92 1.718,3.571 3.024,4.954c1.305,1.382 2.899,2.448 4.781,3.197c1.881,0.748 3.993,1.123 6.336,1.123c3.379,0 6.259,-0.768 8.64,-2.304c2.38,-1.536 4.147,-4.09 5.299,-7.661l-7.2,0c-0.269,0.922 -0.999,1.795 -2.189,2.621c-1.19,0.825 -2.611,1.238 -4.262,1.238c-2.304,0 -4.071,-0.595 -5.3,-1.785c-1.228,-1.191 -1.9,-3.111 -2.016,-5.76Z" style="fill:#fff;fill-rule:nonzero;"/><path d="M510.227,465.795l10.08,-29.779l-8.121,0l-6.279,20.333l-0.115,0l-6.278,-20.333l-8.583,0l10.195,29.779l9.101,0Z" style="fill:#fff;fill-rule:nonzero;"/><path d="M543.75,447.709l-13.305,0c0.038,-0.576 0.163,-1.229 0.374,-1.959c0.211,-0.729 0.576,-1.421 1.095,-2.073c0.518,-0.653 1.209,-1.2 2.073,-1.642c0.864,-0.442 1.949,-0.662 3.255,-0.662c1.996,0 3.484,0.537 4.464,1.612c0.979,1.076 1.66,2.65 2.044,4.724Zm-13.305,5.184l21.485,0c0.153,-2.304 -0.039,-4.512 -0.576,-6.624c-0.538,-2.112 -1.412,-3.994 -2.621,-5.645c-1.21,-1.651 -2.755,-2.967 -4.637,-3.946c-1.882,-0.979 -4.09,-1.469 -6.624,-1.469c-2.266,0 -4.33,0.404 -6.192,1.21c-1.862,0.806 -3.466,1.91 -4.81,3.312c-1.344,1.402 -2.38,3.062 -3.11,4.982c-0.73,1.92 -1.094,3.994 -1.094,6.221c0,2.304 0.355,4.416 1.065,6.336c0.711,1.92 1.719,3.571 3.024,4.954c1.306,1.382 2.899,2.448 4.781,3.197c1.882,0.748 3.994,1.123 6.336,1.123c3.379,0 6.259,-0.768 8.64,-2.304c2.381,-1.536 4.147,-4.09 5.299,-7.661l-7.2,0c-0.269,0.922 -0.998,1.795 -2.189,2.621c-1.19,0.825 -2.611,1.238 -4.262,1.238c-2.304,0 -4.07,-0.595 -5.299,-1.785c-1.229,-1.191 -1.901,-3.111 -2.016,-5.76Z" style="fill:#fff;fill-rule:nonzero;"/><path d="M556.768,436.016l0,29.779l8.179,0l0,-15.61c0,-3.033 0.499,-5.212 1.498,-6.537c0.998,-1.325 2.611,-1.987 4.838,-1.987c1.959,0 3.322,0.604 4.09,1.814c0.768,1.21 1.152,3.043 1.152,5.501l0,16.819l8.179,0l0,-18.317c0,-1.843 -0.163,-3.523 -0.49,-5.04c-0.326,-1.517 -0.892,-2.803 -1.699,-3.859c-0.806,-1.056 -1.91,-1.882 -3.312,-2.477c-1.401,-0.595 -3.197,-0.893 -5.385,-0.893c-1.728,0 -3.418,0.394 -5.069,1.181c-1.651,0.787 -2.995,2.045 -4.032,3.773l-0.173,0l0,-4.147l-7.776,0Z" style="fill:#fff;fill-rule:nonzero;"/><path d="M601.293,436.016l0,-8.928l-8.179,0l0,8.928l-4.954,0l0,5.472l4.954,0l0,17.568c0,1.497 0.249,2.707 0.748,3.629c0.5,0.921 1.181,1.632 2.045,2.131c0.864,0.499 1.863,0.835 2.995,1.008c1.133,0.173 2.333,0.259 3.6,0.259c0.807,0 1.632,-0.019 2.477,-0.058c0.845,-0.038 1.613,-0.115 2.304,-0.23l0,-6.336c-0.384,0.077 -0.787,0.134 -1.209,0.173c-0.423,0.038 -0.864,0.057 -1.325,0.057c-1.383,0 -2.304,-0.23 -2.765,-0.691c-0.461,-0.461 -0.691,-1.382 -0.691,-2.765l0,-14.745l5.99,0l0,-5.472l-5.99,0Z" style="fill:#fff;fill-rule:nonzero;"/><rect x="611.142" y="446.557" width="17.338" height="7.027" style="fill:#fff;fill-rule:nonzero;"/><path d="M654.688,447.709l-13.306,0c0.039,-0.576 0.164,-1.229 0.375,-1.959c0.211,-0.729 0.576,-1.421 1.094,-2.073c0.519,-0.653 1.21,-1.2 2.074,-1.642c0.864,-0.442 1.949,-0.662 3.254,-0.662c1.997,0 3.485,0.537 4.464,1.612c0.979,1.076 1.661,2.65 2.045,4.724Zm-13.306,5.184l21.485,0c0.154,-2.304 -0.038,-4.512 -0.576,-6.624c-0.537,-2.112 -1.411,-3.994 -2.621,-5.645c-1.209,-1.651 -2.755,-2.967 -4.636,-3.946c-1.882,-0.979 -4.09,-1.469 -6.624,-1.469c-2.266,0 -4.33,0.404 -6.192,1.21c-1.863,0.806 -3.466,1.91 -4.81,3.312c-1.344,1.402 -2.381,3.062 -3.11,4.982c-0.73,1.92 -1.095,3.994 -1.095,6.221c0,2.304 0.355,4.416 1.066,6.336c0.71,1.92 1.718,3.571 3.024,4.954c1.305,1.382 2.899,2.448 4.781,3.197c1.881,0.748 3.993,1.123 6.336,1.123c3.379,0 6.259,-0.768 8.64,-2.304c2.38,-1.536 4.147,-4.09 5.299,-7.661l-7.2,0c-0.269,0.922 -0.999,1.795 -2.189,2.621c-1.19,0.825 -2.611,1.238 -4.262,1.238c-2.304,0 -4.071,-0.595 -5.3,-1.785c-1.228,-1.191 -1.9,-3.111 -2.016,-5.76Z" style="fill:#fff;fill-rule:nonzero;"/><path d="M667.936,436.016l0,29.779l8.179,0l0,-17.28c0,-1.459 0.211,-2.64 0.634,-3.542c0.422,-0.903 0.931,-1.594 1.526,-2.074c0.595,-0.48 1.21,-0.806 1.843,-0.979c0.634,-0.173 1.143,-0.259 1.527,-0.259c1.305,0 2.294,0.22 2.966,0.662c0.672,0.442 1.152,1.027 1.44,1.757c0.288,0.729 0.451,1.526 0.49,2.39c0.038,0.864 0.057,1.738 0.057,2.621l0,16.704l8.18,0l0,-16.589c0,-0.921 0.067,-1.833 0.201,-2.736c0.135,-0.902 0.403,-1.709 0.807,-2.419c0.403,-0.71 0.96,-1.286 1.67,-1.728c0.71,-0.442 1.642,-0.662 2.794,-0.662c1.152,0 2.064,0.192 2.736,0.576c0.672,0.384 1.18,0.902 1.526,1.555c0.346,0.653 0.557,1.421 0.634,2.304c0.076,0.883 0.115,1.824 0.115,2.822l0,16.877l8.179,0l0,-19.93c0,-1.92 -0.269,-3.561 -0.806,-4.924c-0.538,-1.364 -1.287,-2.468 -2.247,-3.312c-0.96,-0.845 -2.112,-1.46 -3.456,-1.844c-1.344,-0.384 -2.803,-0.576 -4.377,-0.576c-2.074,0 -3.869,0.5 -5.386,1.498c-1.517,0.998 -2.717,2.15 -3.6,3.456c-0.806,-1.843 -1.987,-3.13 -3.542,-3.859c-1.556,-0.73 -3.274,-1.095 -5.156,-1.095c-1.958,0 -3.696,0.423 -5.212,1.268c-1.517,0.844 -2.813,2.035 -3.888,3.571l-0.116,0l0,-4.032l-7.718,0Z" style="fill:#fff;fill-rule:nonzero;"/><path d="M728.301,431.408l0,-6.739l-8.179,0l0,6.739l8.179,0Zm-8.179,4.608l0,29.779l8.179,0l0,-29.779l-8.179,0Z" style="fill:#fff;fill-rule:nonzero;"/><path d="M745.12,436.016l0,-8.928l-8.179,0l0,8.928l-4.954,0l0,5.472l4.954,0l0,17.568c0,1.497 0.249,2.707 0.749,3.629c0.499,0.921 1.18,1.632 2.044,2.131c0.864,0.499 1.863,0.835 2.996,1.008c1.132,0.173 2.332,0.259 3.6,0.259c0.806,0 1.632,-0.019 2.476,-0.058c0.845,-0.038 1.613,-0.115 2.304,-0.23l0,-6.336c-0.384,0.077 -0.787,0.134 -1.209,0.173c-0.423,0.038 -0.864,0.057 -1.325,0.057c-1.382,0 -2.304,-0.23 -2.765,-0.691c-0.461,-0.461 -0.691,-1.382 -0.691,-2.765l0,-14.745l5.99,0l0,-5.472l-5.99,0Z" style="fill:#fff;fill-rule:nonzero;"/><path d="M765.395,436.016l0,-8.928l-8.179,0l0,8.928l-4.954,0l0,5.472l4.954,0l0,17.568c0,1.497 0.25,2.707 0.749,3.629c0.499,0.921 1.181,1.632 2.045,2.131c0.864,0.499 1.862,0.835 2.995,1.008c1.133,0.173 2.333,0.259 3.6,0.259c0.806,0 1.632,-0.019 2.477,-0.058c0.844,-0.038 1.612,-0.115 2.304,-0.23l0,-6.336c-0.384,0.077 -0.788,0.134 -1.21,0.173c-0.422,0.038 -0.864,0.057 -1.325,0.057c-1.382,0 -2.304,-0.23 -2.765,-0.691c-0.46,-0.461 -0.691,-1.382 -0.691,-2.765l0,-14.745l5.991,0l0,-5.472l-5.991,0Z" style="fill:#fff;fill-rule:nonzero;"/><path d="M795.347,447.709l-13.305,0c0.038,-0.576 0.163,-1.229 0.374,-1.959c0.211,-0.729 0.576,-1.421 1.094,-2.073c0.519,-0.653 1.21,-1.2 2.074,-1.642c0.864,-0.442 1.949,-0.662 3.254,-0.662c1.997,0 3.485,0.537 4.464,1.612c0.98,1.076 1.661,2.65 2.045,4.724Zm-13.305,5.184l21.484,0c0.154,-2.304 -0.038,-4.512 -0.576,-6.624c-0.537,-2.112 -1.411,-3.994 -2.62,-5.645c-1.21,-1.651 -2.756,-2.967 -4.637,-3.946c-1.882,-0.979 -4.09,-1.469 -6.624,-1.469c-2.266,0 -4.33,0.404 -6.192,1.21c-1.863,0.806 -3.466,1.91 -4.81,3.312c-1.344,1.402 -2.381,3.062 -3.11,4.982c-0.73,1.92 -1.095,3.994 -1.095,6.221c0,2.304 0.356,4.416 1.066,6.336c0.71,1.92 1.718,3.571 3.024,4.954c1.306,1.382 2.899,2.448 4.781,3.197c1.881,0.748 3.993,1.123 6.336,1.123c3.379,0 6.259,-0.768 8.64,-2.304c2.381,-1.536 4.147,-4.09 5.299,-7.661l-7.2,0c-0.269,0.922 -0.998,1.795 -2.189,2.621c-1.19,0.825 -2.611,1.238 -4.262,1.238c-2.304,0 -4.071,-0.595 -5.299,-1.785c-1.229,-1.191 -1.901,-3.111 -2.016,-5.76Z" style="fill:#fff;fill-rule:nonzero;"/><path d="M808.365,436.016l0,29.779l8.179,0l0,-13.421c0,-1.344 0.134,-2.592 0.403,-3.744c0.269,-1.152 0.72,-2.16 1.354,-3.024c0.633,-0.864 1.469,-1.545 2.505,-2.045c1.037,-0.499 2.304,-0.748 3.802,-0.748c0.499,0 1.018,0.028 1.555,0.086c0.538,0.058 0.999,0.125 1.383,0.202l0,-7.604c-0.653,-0.192 -1.248,-0.288 -1.786,-0.288c-1.037,0 -2.035,0.154 -2.995,0.461c-0.96,0.307 -1.863,0.739 -2.707,1.296c-0.845,0.557 -1.594,1.229 -2.247,2.016c-0.653,0.787 -1.171,1.642 -1.555,2.563l-0.115,0l0,-5.529l-7.776,0Z" style="fill:#fff;fill-rule:nonzero;"/><path d="M825.875,456.925l0,8.87l4.147,0c0.039,0.614 -0.038,1.219 -0.23,1.814c-0.192,0.596 -0.48,1.133 -0.864,1.613c-0.384,0.48 -0.835,0.893 -1.354,1.239c-0.518,0.345 -1.065,0.576 -1.641,0.691l0,4.147c1.229,-0.192 2.39,-0.547 3.485,-1.066c1.094,-0.518 2.044,-1.18 2.851,-1.987c0.806,-0.806 1.449,-1.757 1.929,-2.851c0.48,-1.094 0.72,-2.294 0.72,-3.6l0,-8.87l-9.043,0Z" style="fill:#fff;fill-rule:nonzero;"/></g></svg>