<?xml version="1.0" encoding="UTF-8" standalone="no"?><!DOCTYPE svg PUBLIC "-//W3C//DTD SVG 1.1//EN" "http://www.w3.org/Graphics/SVG/1.1/DTD/svg11.dtd"><svg width="100%" height="100%" viewBox="0 0 1200 480" version="1.1" xmlns="http://www.w3.org/2000/svg" xmlns:xlink="http://www.w3.org/1999/xlink" xml:space="preserve" xmlns:serif="http://www.serif.com/" style="fill-rule:evenodd;clip-rule:evenodd;stroke-linejoin:round;stroke-miterlimit:2;"><rect x="0" y="0" width="1200" height="480" style="fill:#0b486e;"/><g><path d="M567.291,265.73l-44.533,-45.188l44.533,-39.785l0,26.462l46.748,-45.517l64.708,0l-66.922,58.311l66.922,67.907l-62.494,0l-48.962,-51.422l0,29.232Z" style="fill:#fff;fill-rule:nonzero;"/><path d="M168.815,314.023c4.593,-2.46 8.242,-4.838 10.949,-7.135c2.706,-2.296 4.757,-4.469 6.151,-6.52c1.394,-2.05 2.296,-3.977 2.706,-5.782c0.41,-1.804 0.615,-3.526 0.615,-5.167c0,-2.952 -1.23,-4.428 -3.69,-4.428c-11.482,0 -17.223,-5.413 -17.223,-16.239c0,-6.069 1.722,-10.703 5.167,-13.901c3.444,-3.199 8.201,-4.798 14.27,-4.798c7.381,0 13.04,2.132 16.977,6.397c3.936,4.265 5.905,10.58 5.905,18.945c0,11.318 -3.076,20.668 -9.227,28.049c-6.151,7.381 -15.131,13.942 -26.941,19.683l-5.659,-9.104Z" style="fill:#fff;fill-rule:nonzero;"/><path d="M989.85,314.023c4.593,-2.46 8.243,-4.838 10.949,-7.135c2.707,-2.296 4.757,-4.469 6.151,-6.52c1.394,-2.05 2.296,-3.977 2.706,-5.782c0.411,-1.804 0.616,-3.526 0.616,-5.167c0,-2.952 -1.231,-4.428 -3.691,-4.428c-11.482,0 -17.223,-5.413 -17.223,-16.239c0,-6.069 1.723,-10.703 5.167,-13.901c3.445,-3.199 8.201,-4.798 14.27,-4.798c7.382,0 13.04,2.132 16.977,6.397c3.937,4.265 5.905,10.58 5.905,18.945c0,11.318 -3.075,20.668 -9.226,28.049c-6.151,7.381 -15.132,13.942 -26.942,19.683l-5.659,-9.104Z" style="fill:#fff;fill-rule:nonzero;"/><path d="M255.741,221.608c0,4.1 0.738,7.914 2.214,11.441c1.476,3.526 3.485,6.602 6.028,9.226c2.542,2.625 5.577,4.675 9.103,6.151c3.527,1.476 7.341,2.214 11.441,2.214c3.937,0 7.668,-0.738 11.195,-2.214c3.527,-1.476 6.561,-3.526 9.103,-6.151c2.543,-2.624 4.593,-5.659 6.151,-9.103c1.559,-3.445 2.338,-7.136 2.338,-11.072c0,-3.937 -0.779,-7.668 -2.338,-11.195c-1.558,-3.527 -3.608,-6.602 -6.151,-9.226c-2.542,-2.625 -5.576,-4.675 -9.103,-6.151c-3.527,-1.477 -7.258,-2.215 -11.195,-2.215c-3.936,0 -7.668,0.738 -11.195,2.215c-3.526,1.476 -6.561,3.526 -9.103,6.151c-2.542,2.624 -4.593,5.617 -6.151,8.98c-1.558,3.363 -2.337,7.012 -2.337,10.949Zm56.097,-140.735l44.779,0l0,204.213l-44.779,0l0,-14.024c-9.514,11.974 -22.39,17.961 -38.629,17.961c-9.185,0 -17.632,-1.723 -25.342,-5.167c-7.709,-3.445 -14.434,-8.202 -20.175,-14.271c-5.741,-6.068 -10.211,-13.204 -13.409,-21.405c-3.199,-8.201 -4.798,-17.059 -4.798,-26.572c0,-9.022 1.517,-17.592 4.552,-25.711c3.034,-8.12 7.34,-15.214 12.917,-21.283c5.577,-6.069 12.261,-10.867 20.052,-14.393c7.791,-3.527 16.362,-5.29 25.711,-5.29c15.747,0 28.787,5.495 39.121,16.485l0,-90.543Z" style="fill:#fff;fill-rule:nonzero;"/><path d="M465.612,203.647c-1.476,-6.233 -4.51,-11.236 -9.103,-15.009c-4.593,-3.772 -10.17,-5.658 -16.731,-5.658c-6.889,0 -12.507,1.804 -16.854,5.412c-4.346,3.609 -7.094,8.694 -8.242,15.255l50.93,0Zm-52.16,25.834c0,19.191 9.021,28.787 27.064,28.787c9.678,0 16.977,-3.937 21.898,-11.81l43.057,0c-8.694,28.868 -30.427,43.303 -65.201,43.303c-10.661,0 -20.421,-1.6 -29.278,-4.798c-8.858,-3.199 -16.444,-7.75 -22.759,-13.655c-6.315,-5.905 -11.195,-12.958 -14.639,-21.16c-3.445,-8.201 -5.167,-17.386 -5.167,-27.556c0,-10.498 1.64,-19.97 4.92,-28.418c3.281,-8.447 7.956,-15.623 14.025,-21.528c6.069,-5.905 13.409,-10.457 22.02,-13.655c8.612,-3.199 18.33,-4.798 29.156,-4.798c10.662,0 20.257,1.599 28.787,4.798c8.529,3.198 15.746,7.832 21.651,13.901c5.905,6.069 10.416,13.491 13.532,22.267c3.117,8.775 4.675,18.658 4.675,29.647l0,4.675l-93.741,0Z" style="fill:#fff;fill-rule:nonzero;"/><path d="M808.847,221.608c0,4.1 0.738,7.914 2.214,11.441c1.476,3.526 3.485,6.602 6.028,9.226c2.542,2.625 5.577,4.675 9.103,6.151c3.527,1.476 7.341,2.214 11.441,2.214c3.937,0 7.668,-0.738 11.195,-2.214c3.527,-1.476 6.561,-3.526 9.103,-6.151c2.543,-2.624 4.593,-5.659 6.151,-9.103c1.559,-3.445 2.338,-7.136 2.338,-11.072c0,-3.937 -0.779,-7.668 -2.338,-11.195c-1.558,-3.527 -3.608,-6.602 -6.151,-9.226c-2.542,-2.625 -5.576,-4.675 -9.103,-6.151c-3.527,-1.477 -7.258,-2.215 -11.195,-2.215c-4.1,0 -7.914,0.738 -11.441,2.215c-3.526,1.476 -6.561,3.526 -9.103,6.151c-2.543,2.624 -4.552,5.617 -6.028,8.98c-1.476,3.363 -2.214,7.012 -2.214,10.949Zm56.097,-62.74l44.779,0l0,126.218l-44.779,0l0,-14.024c-9.514,11.974 -22.39,17.961 -38.629,17.961c-9.185,0 -17.632,-1.682 -25.342,-5.044c-7.709,-3.363 -14.434,-8.078 -20.175,-14.147c-5.741,-6.069 -10.211,-13.205 -13.409,-21.406c-3.199,-8.201 -4.798,-17.141 -4.798,-26.818c0,-9.022 1.558,-17.592 4.675,-25.711c3.116,-8.12 7.463,-15.214 13.04,-21.283c5.577,-6.069 12.22,-10.867 19.929,-14.393c7.709,-3.527 16.239,-5.29 25.588,-5.29c15.747,0 28.787,5.495 39.121,16.485l0,-12.548Z" style="fill:#fff;fill-rule:nonzero;"/><path d="M975.907,158.868l0,126.218l-44.533,0l0,-126.218l44.533,0Zm-47.485,-48.47c0,-3.445 0.656,-6.684 1.968,-9.719c1.312,-3.034 3.117,-5.7 5.413,-7.996c2.296,-2.296 4.962,-4.101 7.996,-5.413c3.035,-1.312 6.274,-1.968 9.719,-1.968c3.444,0 6.684,0.656 9.718,1.968c3.035,1.312 5.7,3.117 7.997,5.413c2.296,2.296 4.1,4.962 5.413,7.996c1.312,3.035 1.968,6.274 1.968,9.719c0,3.444 -0.656,6.684 -1.968,9.718c-1.313,3.035 -3.117,5.7 -5.413,7.997c-2.297,2.296 -4.962,4.1 -7.997,5.413c-3.034,1.312 -6.274,1.968 -9.718,1.968c-3.445,0 -6.684,-0.656 -9.719,-1.968c-3.034,-1.313 -5.7,-3.117 -7.996,-5.413c-2.296,-2.297 -4.101,-4.962 -5.413,-7.997c-1.312,-3.034 -1.968,-6.274 -1.968,-9.718Z" style="fill:#fff;fill-rule:nonzero;"/><path d="M522.758,287.92l0,-55.104l44.533,45.188l0,9.916l-44.533,0Zm0,-79.663l0,-127.384l44.533,0l0,87.599l-44.533,39.785Z" style="fill:#5ea5cf;fill-rule:nonzero;"/><path d="M668.914,265.73l-44.534,-45.188l44.534,-39.785l0,26.462l46.747,-45.517l64.709,0l-66.923,58.311l66.923,67.907l-62.494,0l-48.962,-51.422l0,29.232Z" style="fill:#5ea5cf;fill-rule:nonzero;"/><g><path d="M747.783,111.966l3.736,-1.937c1.846,3.26 3.214,5.766 4.106,7.519l-3.737,1.8c-1.414,-2.676 -2.783,-5.137 -4.105,-7.382Zm6.827,-1.66l3.829,-1.984c1.569,2.768 2.968,5.321 4.198,7.658l-3.829,1.845c-1.291,-2.46 -2.691,-4.967 -4.198,-7.519Zm-23.896,10.379c0,-3.383 0.991,-6.427 2.975,-9.134c1.984,-2.706 4.883,-4.936 8.696,-6.689l0,-0.092c-7.074,0.307 -14.132,0.461 -21.175,0.461l0,-4.383c12.302,0 24.835,-0.307 37.598,-0.922l0.231,4.382c-7.72,0.769 -13.509,2.568 -17.369,5.398c-3.86,2.829 -5.79,6.335 -5.79,10.518c0,3.506 1.115,6.243 3.345,8.212c2.23,1.968 5.19,2.952 8.881,2.952c1.722,0 3.629,-0.169 5.72,-0.507l0.554,4.428c-2.307,0.4 -4.475,0.6 -6.505,0.6c-5.259,0 -9.434,-1.361 -12.525,-4.083c-3.091,-2.721 -4.636,-6.435 -4.636,-11.141Z" style="fill:#fff;fill-rule:nonzero;"/><path d="M771.587,110.582c7.443,-1.814 13.055,-2.721 16.838,-2.721c9.411,0 14.117,3.921 14.117,11.763c0,9.78 -8.012,14.67 -24.035,14.67l-0.323,-4.382c6.797,0 11.733,-0.815 14.808,-2.445c3.076,-1.63 4.614,-4.091 4.614,-7.381c0,-2.676 -0.769,-4.637 -2.307,-5.882c-1.538,-1.246 -3.983,-1.869 -7.335,-1.869c-3.199,0 -8.319,0.862 -15.362,2.584l-1.015,-4.337Z" style="fill:#fff;fill-rule:nonzero;"/><path d="M824.593,95.589l4.475,0.508c-0.461,2.983 -1.015,5.982 -1.661,8.996l6.897,0c0.753,0 1.584,0.084 2.491,0.253c0.907,0.17 1.538,0.323 1.892,0.462c0.353,0.138 0.753,0.476 1.199,1.015c0.446,0.538 0.723,1.022 0.83,1.453c0.108,0.43 0.231,1.199 0.369,2.306c0.139,1.108 0.208,2.122 0.208,3.045l0,4.152c0,5.813 -0.7,10.149 -2.099,13.009c-1.399,2.861 -3.237,4.291 -5.513,4.291c-2.706,0 -5.889,-0.785 -9.549,-2.353l1.476,-4.198c3.229,1.292 5.613,1.937 7.151,1.937c0.43,0 0.861,-0.261 1.291,-0.784c0.431,-0.523 0.831,-1.307 1.2,-2.353c0.369,-1.045 0.661,-2.452 0.876,-4.221c0.215,-1.768 0.323,-3.775 0.323,-6.02l0,-2.629c0,-0.523 -0.031,-1.154 -0.092,-1.892c-0.062,-0.738 -0.108,-1.215 -0.139,-1.43c-0.03,-0.215 -0.153,-0.507 -0.369,-0.877c-0.215,-0.369 -0.384,-0.576 -0.507,-0.622c-0.123,-0.046 -0.408,-0.123 -0.853,-0.231c-0.446,-0.108 -0.823,-0.161 -1.131,-0.161l-1.522,0l-5.398,0c-2.183,8.949 -5.09,17.668 -8.719,26.157l-4.244,-1.615c3.414,-8.027 6.151,-16.208 8.212,-24.542l-7.612,0l0,-4.152l8.627,0c0.799,-3.568 1.43,-6.736 1.891,-9.504Zm18.084,7.197l4.336,-1.476c3.168,7.504 5.798,15.285 7.889,23.343l-4.475,1.061c-2.091,-8.089 -4.674,-15.731 -7.75,-22.928Z" style="fill:#fff;fill-rule:nonzero;"/><path d="M887.702,102.232l4.429,-1.384c2.061,3.999 3.637,8.543 4.729,13.633c1.091,5.09 1.637,10.341 1.637,15.754l-4.844,0c0,-5.013 -0.522,-9.965 -1.568,-14.855c-1.046,-4.89 -2.507,-9.272 -4.383,-13.148Zm-19.421,-0.553c-1.384,4.859 -2.076,9.995 -2.076,15.408c0,3.691 0.63,6.805 1.891,9.342c1.261,2.537 2.522,3.806 3.783,3.806c0.861,0 1.984,-0.938 3.368,-2.814c1.383,-1.876 2.752,-4.552 4.105,-8.027l4.383,1.707c-1.538,4.367 -3.452,7.788 -5.744,10.264c-2.291,2.476 -4.451,3.714 -6.481,3.714c-2.522,0 -4.844,-1.753 -6.966,-5.259c-2.122,-3.506 -3.183,-7.751 -3.183,-12.733c0,-5.751 0.738,-11.072 2.214,-15.962l4.706,0.554Z" style="fill:#fff;fill-rule:nonzero;"/></g></g><text x="479.985px" y="376.683px" style="font-family:'HelveticaNeue-Bold', 'Helvetica Neue';font-weight:700;font-size:54px;fill:#fff;">,workers,</text></svg>